<?xml version="1.0" encoding="UTF-8"?>
<svg width="22px" height="12px" viewBox="0 0 22 12" version="1.1" xmlns="http://www.w3.org/2000/svg" xmlns:xlink="http://www.w3.org/1999/xlink" style="background: #757575;">
    <title>GSM Pride Flag</title>
    <defs>
        <rect id="path-1" x="0" y="0" width="22" height="12"></rect>
    </defs>
    <g id="GSM-Pride-Flag" stroke="none" stroke-width="1" fill="none" fill-rule="evenodd" mask="url(#mask-2)">
        <rect fill="#757575" x="0" y="0" width="22" height="12"></rect>
        <mask id="mask-2" fill="white">
            <use xlink:href="#path-1"></use>
        </mask>
        <g id="Rectangle"></g>
        <g id="Group">
            <g transform="translate(14.000000, 0.000000)" id="Path-2">
                <g transform="translate(-24.000000, 0.000000)">
                    <polygon id="Path" fill="#FAFAFA" points="24 0 30 6 24 12 0 12 0 0"></polygon>
                </g>
            </g>
        </g>
        <g id="Group">
            <g transform="translate(12.000000, 0.000000)" id="Path-2">
                <g transform="translate(-24.000000, 0.000000)">
                    <polygon id="Path" fill="#8E24AA" points="24 0 30 6 24 12 0 12 0 0"></polygon>
                </g>
            </g>
        </g>
        <g id="Group">
            <g transform="translate(10.000000, 0.000000)" id="Path-2">
                <g transform="translate(-24.000000, 0.000000)">
                    <polygon id="Path" fill="#311B92" points="24 0 30 6 24 12 0 12 0 0"></polygon>
                </g>
            </g>
        </g>
        <g id="Group">
            <g transform="translate(8.000000, 0.000000)" id="Path-2">
                <g transform="translate(-24.000000, 0.000000)">
                    <polygon id="Path" fill="#81D4FA" points="24 0 30 6 24 12 0 12 0 0"></polygon>
                </g>
            </g>
        </g>
        <g id="Group">
            <g transform="translate(6.000000, 0.000000)" id="Path-2">
                <g transform="translate(-24.000000, 0.000000)">
                    <polygon id="Path" fill="#388E3C" points="24 0 30 6 24 12 0 12 0 0"></polygon>
                </g>
            </g>
        </g>
        <g id="Group">
            <g transform="translate(4.000000, 0.000000)" id="Path-2">
                <g transform="translate(-24.000000, 0.000000)">
                    <polygon id="Path" fill="#FFEB3B" points="24 0 30 6 24 12 0 12 0 0"></polygon>
                </g>
            </g>
        </g>
        <g id="Group">
            <g transform="translate(2.000000, 0.000000)" id="Path-2">
                <g transform="translate(-24.000000, 0.000000)">
                    <polygon id="Path" fill="#FF9800" points="24 0 30 6 24 12 0 12 0 0"></polygon>
                </g>
            </g>
        </g>
        <g id="Group">
            <g id="Path-2">
                <g transform="translate(-24.000000, 0.000000)">
                    <polygon id="Path" fill="#F44336" points="24 0 30 6 24 12 0 12 0 0"></polygon>
                </g>
            </g>
        </g>
        <g id="Group">
            <g transform="translate(-2.000000, 0.000000)" id="Path-2">
                <g transform="translate(-24.000000, 0.000000)">
                    <polygon id="Path" fill="#F8BBD0" points="24 0 30 6 24 12 0 12 0 0"></polygon>
                </g>
            </g>
        </g>
    </g>
</svg>
