<?xml version="1.0" encoding="UTF-8"?>
<svg width="20px" height="12px" viewBox="0 0 20 12" version="1.1" xmlns="http://www.w3.org/2000/svg" xmlns:xlink="http://www.w3.org/1999/xlink">
    <title>GSM Pride Flag (2021 Ky Leggiero design; Repeating Banner)</title>
    <defs>
        <filter color-interpolation-filters="auto" id="filter-1">
            <feColorMatrix in="SourceGraphic" type="matrix" values="0 0 0 0 0.956863 0 0 0 0 0.262745 0 0 0 0 0.211765 0 0 0 1.000000 0"></feColorMatrix>
        </filter>
        <filter color-interpolation-filters="auto" id="filter-2">
            <feColorMatrix in="SourceGraphic" type="matrix" values="0 0 0 0 0.972549 0 0 0 0 0.733333 0 0 0 0 0.815686 0 0 0 1.000000 0"></feColorMatrix>
        </filter>
        <filter color-interpolation-filters="auto" id="filter-3">
            <feColorMatrix in="SourceGraphic" type="matrix" values="0 0 0 0 0.458824 0 0 0 0 0.458824 0 0 0 0 0.458824 0 0 0 1.000000 0"></feColorMatrix>
        </filter>
        <filter color-interpolation-filters="auto" id="filter-4">
            <feColorMatrix in="SourceGraphic" type="matrix" values="0 0 0 0 0.741176 0 0 0 0 0.741176 0 0 0 0 0.741176 0 0 0 1.000000 0"></feColorMatrix>
        </filter>
        <filter color-interpolation-filters="auto" id="filter-5">
            <feColorMatrix in="SourceGraphic" type="matrix" values="0 0 0 0 0.556863 0 0 0 0 0.141176 0 0 0 0 0.666667 0 0 0 1.000000 0"></feColorMatrix>
        </filter>
        <filter color-interpolation-filters="auto" id="filter-6">
            <feColorMatrix in="SourceGraphic" type="matrix" values="0 0 0 0 0.192157 0 0 0 0 0.105882 0 0 0 0 0.572549 0 0 0 1.000000 0"></feColorMatrix>
        </filter>
        <filter color-interpolation-filters="auto" id="filter-7">
            <feColorMatrix in="SourceGraphic" type="matrix" values="0 0 0 0 0.505882 0 0 0 0 0.831373 0 0 0 0 0.980392 0 0 0 1.000000 0"></feColorMatrix>
        </filter>
        <filter color-interpolation-filters="auto" id="filter-8">
            <feColorMatrix in="SourceGraphic" type="matrix" values="0 0 0 0 0.219608 0 0 0 0 0.556863 0 0 0 0 0.235294 0 0 0 1.000000 0"></feColorMatrix>
        </filter>
        <filter color-interpolation-filters="auto" id="filter-9">
            <feColorMatrix in="SourceGraphic" type="matrix" values="0 0 0 0 1.000000 0 0 0 0 0.921569 0 0 0 0 0.231373 0 0 0 1.000000 0"></feColorMatrix>
        </filter>
        <filter color-interpolation-filters="auto" id="filter-10">
            <feColorMatrix in="SourceGraphic" type="matrix" values="0 0 0 0 1.000000 0 0 0 0 0.596078 0 0 0 0 0.000000 0 0 0 1.000000 0"></feColorMatrix>
        </filter>
        <filter color-interpolation-filters="auto" id="filter-11">
            <feColorMatrix in="SourceGraphic" type="matrix" values="0 0 0 0 0.956863 0 0 0 0 0.262745 0 0 0 0 0.211765 0 0 0 1.000000 0"></feColorMatrix>
        </filter>
        <filter color-interpolation-filters="auto" id="filter-12">
            <feColorMatrix in="SourceGraphic" type="matrix" values="0 0 0 0 0.972549 0 0 0 0 0.733333 0 0 0 0 0.815686 0 0 0 1.000000 0"></feColorMatrix>
        </filter>
        <filter color-interpolation-filters="auto" id="filter-13">
            <feColorMatrix in="SourceGraphic" type="matrix" values="0 0 0 0 0.458824 0 0 0 0 0.458824 0 0 0 0 0.458824 0 0 0 1.000000 0"></feColorMatrix>
        </filter>
    </defs>
    <g id="GSM-Pride-Flag-(2021-Ky-Leggiero-design;-Repeating-Banner)" stroke="none" stroke-width="1" fill="none" fill-rule="evenodd">
        <rect fill="#757575" x="0" y="0" width="20" height="12"></rect>
        <g id="Path-2" transform="translate(-4.000000, 0.000000)" filter="url(#filter-1)">
            <g>
                <polygon id="Path" fill="#D8D8D8" points="24 8.32667268e-17 30 6 24 12 0 12 0 0"></polygon>
            </g>
        </g>
        <g id="Path-2" transform="translate(18.000000, 0.000000)" filter="url(#filter-2)">
            <g transform="translate(-24.000000, 0.000000)">
                <polygon id="Path" fill="#D8D8D8" points="24 8.32667268e-17 30 6 24 12 0 12 0 0"></polygon>
            </g>
        </g>
        <g id="Path-2" transform="translate(16.000000, 0.000000)" filter="url(#filter-3)">
            <g transform="translate(-24.000000, 0.000000)">
                <polygon id="Path" fill="#D8D8D8" points="24 8.32667268e-17 30 6 24 12 0 12 0 0"></polygon>
            </g>
        </g>
        <g id="Path-2" transform="translate(14.000000, 0.000000)" filter="url(#filter-4)">
            <g transform="translate(-24.000000, 0.000000)">
                <polygon id="Path" fill="#D8D8D8" points="24 8.32667268e-17 30 6 24 12 0 12 0 0"></polygon>
            </g>
        </g>
        <g id="Path-2" transform="translate(12.000000, 0.000000)" filter="url(#filter-5)">
            <g transform="translate(-24.000000, 0.000000)">
                <polygon id="Path" fill="#D8D8D8" points="24 8.32667268e-17 30 6 24 12 0 12 0 0"></polygon>
            </g>
        </g>
        <g id="Path-2" transform="translate(10.000000, 0.000000)" filter="url(#filter-6)">
            <g transform="translate(-24.000000, 0.000000)">
                <polygon id="Path" fill="#D8D8D8" points="24 8.32667268e-17 30 6 24 12 0 12 0 0"></polygon>
            </g>
        </g>
        <g id="Path-2" transform="translate(8.000000, 0.000000)" filter="url(#filter-7)">
            <g transform="translate(-24.000000, 0.000000)">
                <polygon id="Path" fill="#D8D8D8" points="24 8.32667268e-17 30 6 24 12 0 12 0 0"></polygon>
            </g>
        </g>
        <g id="Path-2" transform="translate(6.000000, 0.000000)" filter="url(#filter-8)">
            <g transform="translate(-24.000000, 0.000000)">
                <polygon id="Path" fill="#D8D8D8" points="24 8.32667268e-17 30 6 24 12 0 12 0 0"></polygon>
            </g>
        </g>
        <g id="Path-2" transform="translate(4.000000, 0.000000)" filter="url(#filter-9)">
            <g transform="translate(-24.000000, 0.000000)">
                <polygon id="Path" fill="#D8D8D8" points="24 8.32667268e-17 30 6 24 12 0 12 0 0"></polygon>
            </g>
        </g>
        <g id="Path-2" transform="translate(2.000000, 0.000000)" filter="url(#filter-10)">
            <g transform="translate(-24.000000, 0.000000)">
                <polygon id="Path" fill="#D8D8D8" points="24 8.32667268e-17 30 6 24 12 0 12 0 0"></polygon>
            </g>
        </g>
        <g id="Path-2" filter="url(#filter-11)">
            <g transform="translate(-24.000000, 0.000000)">
                <polygon id="Path" fill="#D8D8D8" points="24 8.32667268e-17 30 6 24 12 0 12 0 0"></polygon>
            </g>
        </g>
        <g id="Path-2" transform="translate(-2.000000, 0.000000)" filter="url(#filter-12)">
            <g transform="translate(-24.000000, 0.000000)">
                <polygon id="Path" fill="#D8D8D8" points="24 8.32667268e-17 30 6 24 12 0 12 0 0"></polygon>
            </g>
        </g>
        <g id="Path-2" transform="translate(-4.000000, 0.000000)" filter="url(#filter-13)">
            <g transform="translate(-24.000000, 0.000000)">
                <polygon id="Path" fill="#D8D8D8" points="24 8.32667268e-17 30 6 24 12 0 12 0 0"></polygon>
            </g>
        </g>
    </g>
</svg>