<?xml version="1.0" encoding="UTF-8"?>
<svg width="22px" height="12px" viewBox="0 0 22 12" version="1.1" xmlns="http://www.w3.org/2000/svg" xmlns:xlink="http://www.w3.org/1999/xlink">
    <title>Intersex Progress Pride Flag</title>
    <defs>
        <rect id="path-1" x="0" y="0" width="22" height="12"></rect>
        <filter color-interpolation-filters="auto" id="filter-3">
            <feColorMatrix in="SourceGraphic" type="matrix" values="0 0 0 0 0.000000 0 0 0 0 0.000000 0 0 0 0 0.000000 0 0 0 1.000000 0"></feColorMatrix>
        </filter>
        <filter color-interpolation-filters="auto" id="filter-4">
            <feColorMatrix in="SourceGraphic" type="matrix" values="0 0 0 0 0.584314 0 0 0 0 0.321569 0 0 0 0 0.007843 0 0 0 1.000000 0"></feColorMatrix>
        </filter>
        <filter color-interpolation-filters="auto" id="filter-5">
            <feColorMatrix in="SourceGraphic" type="matrix" values="0 0 0 0 0.470588 0 0 0 0 0.835294 0 0 0 0 1.000000 0 0 0 1.000000 0"></feColorMatrix>
        </filter>
        <filter color-interpolation-filters="auto" id="filter-6">
            <feColorMatrix in="SourceGraphic" type="matrix" values="0 0 0 0 1.000000 0 0 0 0 0.709804 0 0 0 0 0.909804 0 0 0 1.000000 0"></feColorMatrix>
        </filter>
        <filter color-interpolation-filters="auto" id="filter-7">
            <feColorMatrix in="SourceGraphic" type="matrix" values="0 0 0 0 1.000000 0 0 0 0 1.000000 0 0 0 0 1.000000 0 0 0 1.000000 0"></feColorMatrix>
        </filter>
        <filter color-interpolation-filters="auto" id="filter-8">
            <feColorMatrix in="SourceGraphic" type="matrix" values="0 0 0 0 0.996078 0 0 0 0 0.992157 0 0 0 0 0.000000 0 0 0 1.000000 0"></feColorMatrix>
        </filter>
    </defs>
    <g id="Intersex-Progress-Pride-Flag" stroke="none" stroke-width="1" fill="none" fill-rule="evenodd">
        <g id="Bars">
            <rect id="Purple" fill="#541792" x="0" y="9" width="22" height="3"></rect>
            <rect id="Blue" fill="#091392" x="0" y="7" width="22" height="3"></rect>
            <rect id="Green" fill="#00FA00" x="0" y="5" width="22" height="3"></rect>
            <rect id="Yellow" fill="#FEFD00" x="0" y="3" width="22" height="3"></rect>
            <rect id="Orange" fill="#FE9600" x="0" y="1" width="22" height="3"></rect>
            <rect id="Red" fill="#FE2603" x="0" y="0" width="22" height="2"></rect>
        </g>
        <g id="Chevrons">
            <mask id="mask-2" fill="white">
                <use xlink:href="#path-1"></use>
            </mask>
            <g id="Rectangle"></g>
            <g id="Group" mask="url(#mask-2)">
                <g transform="translate(7.500000, 0.000000)" id="Path-2" filter="url(#filter-3)">
                    <g transform="translate(-24.000000, 0.000000)">
                        <polygon id="Path" fill="#D8D8D8" points="24 8.32667268e-17 30 6 24 12 0 12 0 0"></polygon>
                    </g>
                </g>
            </g>
            <g id="Group" mask="url(#mask-2)">
                <g transform="translate(6.000000, 0.000000)" id="Path-2" filter="url(#filter-4)">
                    <g transform="translate(-24.000000, 0.000000)">
                        <polygon id="Path" fill="#D8D8D8" points="24 8.32667268e-17 30 6 24 12 0 12 0 0"></polygon>
                    </g>
                </g>
            </g>
            <g id="Group" mask="url(#mask-2)">
                <g transform="translate(4.500000, 0.000000)" id="Path-2" filter="url(#filter-5)">
                    <g transform="translate(-24.000000, 0.000000)">
                        <polygon id="Path" fill="#D8D8D8" points="24 8.32667268e-17 30 6 24 12 0 12 0 0"></polygon>
                    </g>
                </g>
            </g>
            <g id="Group" mask="url(#mask-2)">
                <g transform="translate(3.000000, 0.000000)" id="Path-2" filter="url(#filter-6)">
                    <g transform="translate(-24.000000, 0.000000)">
                        <polygon id="Path" fill="#D8D8D8" points="24 8.32667268e-17 30 6 24 12 0 12 0 0"></polygon>
                    </g>
                </g>
            </g>
            <g id="Group" mask="url(#mask-2)">
                <g transform="translate(1.500000, 0.000000)" id="Path-2" filter="url(#filter-7)">
                    <g transform="translate(-24.000000, 0.000000)">
                        <polygon id="Path" fill="#D8D8D8" points="24 8.32667268e-17 30 6 24 12 0 12 0 0"></polygon>
                    </g>
                </g>
            </g>
            <g id="Intersex" mask="url(#mask-2)">
                <g id="Path-2" filter="url(#filter-8)">
                    <g transform="translate(-24.000000, 0.000000)">
                        <polygon id="Path" fill="#D8D8D8" points="24 8.32667268e-17 30 6 24 12 0 12 0 0"></polygon>
                    </g>
                </g>
                <path d="M2.25,4.25 C3.21649831,4.25 4,5.03350169 4,6 C4,6.96649831 3.21649831,7.75 2.25,7.75 C1.28350169,7.75 0.5,6.96649831 0.5,6 C0.5,5.03350169 1.28350169,4.25 2.25,4.25 Z M2.25,4.5 C1.42157288,4.5 0.75,5.17157288 0.75,6 C0.75,6.82842712 1.42157288,7.5 2.25,7.5 C3.07842712,7.5 3.75,6.82842712 3.75,6 C3.75,5.17157288 3.07842712,4.5 2.25,4.5 Z" id="Purple-Circle" fill="#942EFF"></path>
            </g>
        </g>
    </g>
</svg>