<?xml version="1.0" encoding="UTF-8"?>
<svg width="220px" height="120px" viewBox="0 0 220 120" version="1.1" xmlns="http://www.w3.org/2000/svg" xmlns:xlink="http://www.w3.org/1999/xlink">
    <title>Intersex Progress Pride Flag</title>
    <defs>
        <rect id="path-1" x="0" y="0" width="220" height="120"></rect>
        <filter color-interpolation-filters="auto" id="filter-3">
            <feColorMatrix in="SourceGraphic" type="matrix" values="0 0 0 0 0.000000 0 0 0 0 0.000000 0 0 0 0 0.000000 0 0 0 1.000000 0"></feColorMatrix>
        </filter>
        <filter color-interpolation-filters="auto" id="filter-4">
            <feColorMatrix in="SourceGraphic" type="matrix" values="0 0 0 0 0.584314 0 0 0 0 0.321569 0 0 0 0 0.007843 0 0 0 1.000000 0"></feColorMatrix>
        </filter>
        <filter color-interpolation-filters="auto" id="filter-5">
            <feColorMatrix in="SourceGraphic" type="matrix" values="0 0 0 0 0.470588 0 0 0 0 0.835294 0 0 0 0 1.000000 0 0 0 1.000000 0"></feColorMatrix>
        </filter>
        <filter color-interpolation-filters="auto" id="filter-6">
            <feColorMatrix in="SourceGraphic" type="matrix" values="0 0 0 0 1.000000 0 0 0 0 0.709804 0 0 0 0 0.909804 0 0 0 1.000000 0"></feColorMatrix>
        </filter>
        <filter color-interpolation-filters="auto" id="filter-7">
            <feColorMatrix in="SourceGraphic" type="matrix" values="0 0 0 0 1.000000 0 0 0 0 1.000000 0 0 0 0 1.000000 0 0 0 1.000000 0"></feColorMatrix>
        </filter>
        <filter color-interpolation-filters="auto" id="filter-8">
            <feColorMatrix in="SourceGraphic" type="matrix" values="0 0 0 0 0.996078 0 0 0 0 0.992157 0 0 0 0 0.000000 0 0 0 1.000000 0"></feColorMatrix>
        </filter>
    </defs>
    <g id="Intersex-Progress-Pride-Flag" stroke="none" stroke-width="1" fill="none" fill-rule="evenodd">
        <g id="Bars">
            <rect id="Purple" fill="#541792" x="0" y="90" width="220" height="30"></rect>
            <rect id="Blue" fill="#091392" x="0" y="70" width="220" height="30"></rect>
            <rect id="Green" fill="#00FA00" x="0" y="50" width="220" height="30"></rect>
            <rect id="Yellow" fill="#FEFD00" x="0" y="30" width="220" height="30"></rect>
            <rect id="Orange" fill="#FE9600" x="0" y="10" width="220" height="30"></rect>
            <rect id="Red" fill="#FE2603" x="0" y="0" width="220" height="20"></rect>
        </g>
        <g id="Chevrons">
            <mask id="mask-2" fill="white">
                <use xlink:href="#path-1"></use>
            </mask>
            <g id="Rectangle"></g>
            <g id="Group" mask="url(#mask-2)">
                <g transform="translate(75.000000, 0.000000)" id="Path-2" filter="url(#filter-3)">
                    <g transform="translate(-240.000000, 0.000000)">
                        <polygon id="Path" fill="#D8D8D8" points="240 8.32667268e-16 300 60 240 120 0 120 0 0"></polygon>
                    </g>
                </g>
            </g>
            <g id="Group" mask="url(#mask-2)">
                <g transform="translate(60.000000, 0.000000)" id="Path-2" filter="url(#filter-4)">
                    <g transform="translate(-240.000000, 0.000000)">
                        <polygon id="Path" fill="#D8D8D8" points="240 8.32667268e-16 300 60 240 120 0 120 0 0"></polygon>
                    </g>
                </g>
            </g>
            <g id="Group" mask="url(#mask-2)">
                <g transform="translate(45.000000, 0.000000)" id="Path-2" filter="url(#filter-5)">
                    <g transform="translate(-240.000000, 0.000000)">
                        <polygon id="Path" fill="#D8D8D8" points="240 8.32667268e-16 300 60 240 120 0 120 0 0"></polygon>
                    </g>
                </g>
            </g>
            <g id="Group" mask="url(#mask-2)">
                <g transform="translate(30.000000, 0.000000)" id="Path-2" filter="url(#filter-6)">
                    <g transform="translate(-240.000000, 0.000000)">
                        <polygon id="Path" fill="#D8D8D8" points="240 8.32667268e-16 300 60 240 120 0 120 0 0"></polygon>
                    </g>
                </g>
            </g>
            <g id="Group" mask="url(#mask-2)">
                <g transform="translate(15.000000, 0.000000)" id="Path-2" filter="url(#filter-7)">
                    <g transform="translate(-240.000000, 0.000000)">
                        <polygon id="Path" fill="#D8D8D8" points="240 8.32667268e-16 300 60 240 120 0 120 0 0"></polygon>
                    </g>
                </g>
            </g>
            <g id="Intersex" mask="url(#mask-2)">
                <g id="Path-2" filter="url(#filter-8)">
                    <g transform="translate(-240.000000, 0.000000)">
                        <polygon id="Path" fill="#D8D8D8" points="240 8.32667268e-16 300 60 240 120 0 120 0 0"></polygon>
                    </g>
                </g>
                <path d="M22.5,42.5 C32.1649831,42.5 40,50.3350169 40,60 C40,69.6649831 32.1649831,77.5 22.5,77.5 C12.8350169,77.5 5,69.6649831 5,60 C5,50.3350169 12.8350169,42.5 22.5,42.5 Z M22.5,45 C14.2157288,45 7.5,51.7157288 7.5,60 C7.5,68.2842712 14.2157288,75 22.5,75 C30.7842712,75 37.5,68.2842712 37.5,60 C37.5,51.7157288 30.7842712,45 22.5,45 Z" id="Purple-Circle" fill="#942EFF"></path>
            </g>
        </g>
    </g>
</svg>