<?xml version="1.0" encoding="UTF-8"?>
<svg width="60px" height="20px" viewBox="0 0 60 20" version="1.1" xmlns="http://www.w3.org/2000/svg" xmlns:xlink="http://www.w3.org/1999/xlink">
    <title>NB Trans Swoopy Design</title>
    <g id="NB-Trans-Swoopy-Design" stroke="none" stroke-width="1" fill="none" fill-rule="evenodd">
        <g id="Group">
            <path d="M60.05,4.95000292 L60.05,10.0500019 C45.5763543,10.0488753 38.2575044,10.5369523 30.8470477,11.0311372 C23.2479024,11.5379053 15.5524472,12.051097 -0.05,12.0499982 L-0.05,12.0499982 L-0.05,7.94999736 C15.5482561,7.95164546 23.2416421,7.18206807 30.838744,6.42212036 C38.251309,5.68063211 45.5722414,4.94831295 60.05,4.95000292 L60.05,4.95000292 Z" id="White" stroke="#FFFFFF" stroke-width="0.1" fill="#FFFFFF"></path>
            <g id="NB" stroke-width="0.01">
                <path d="M60,15 C30,15 30,20 0,20 C1,20 21,20 60,20 C60,17.3333333 60,15.6666667 60,15 Z" id="Black" stroke="#212121" fill="#212121"></path>
                <path d="M60,10 C30,10 30,16 0,16 C30,16 30,15 60,15 C60,13.5 60,11 60,10 Z" id="Purple" stroke="#673AB7" fill="#673AB7"></path>
                <path d="M0,0 C20,0 40,0 60,0 C60,1 60,4 60,5 C30,5 30,7.5 0,8 C0,7.33333333 0,4.66666667 0,0 Z" id="Yellow" stroke="#FFEB3B" fill="#FFEB3B"></path>
            </g>
            <g id="Trans">
                <path d="M0,16 C30,16 30,15 60,15 C30,15 30,20 0,20 C0,19 0,17 0,16 Z" id="Cyan-Bottom" fill="#80D8FF"></path>
                <path d="M0,12 C30,12 30,10 60,10 C30,10 30,16 0,16 C0,15 0,13 0,12 Z" id="Pink-Bottom" fill="#F8BBD0"></path>
                <path d="M0,8 C0,8 0,4.5 0,4 C30,4 30,5 60,5 C30,5 30,8 0,8 Z" id="Pink-Top" fill="#F8BBD0"></path>
                <path d="M0,0 C0,1.66666667 0,3 0,4 C30,4 30,0 60,0 C58.5,0 38.5,0 0,0 Z" id="Cyan-Top" fill="#80D8FF"></path>
            </g>
        </g>
    </g>
</svg>